<?xml version="1.0" encoding="utf-8"?>
<!DOCTYPE svg PUBLIC "-//W3C//DTD SVG 1.1//EN" "http://www.w3.org/Graphics/SVG/1.1/DTD/svg11.dtd">
<svg className="edit-svg" class="edit-svg" version="1.1" xmlns="http://www.w3.org/2000/svg" xmlns:xlink="http://www.w3.org/1999/xlink" x="0px" y="0px" viewBox="0 0 256 256" enable-background="new 0 0 256 256" xml:space="preserve">
<g><g><path d="M242.6,45.9l-24.5,24.4l-32.7-32.6l24.5-24.4c4.5-4.5,11.8-4.5,16.3,0l16.3,16.3C247.1,34.1,247.1,41.4,242.6,45.9z M71.1,151.8l32.7,32.6l-43.5,10.8L71.1,151.8z M209.9,78.4l-98,97.8l-32.6-32.6l98-97.8L209.9,78.4z M33.2,45.1v177.8H211V94.6l23.2-23.2v163.1c0,6.4-5.2,11.6-11.6,11.6h-201c-6.4,0-11.6-5.2-11.6-11.6V33.5c0-6.4,5.2-11.6,11.6-11.6h163.8L162.2,45L33.2,45.1L33.2,45.1z"/></g></g>
</svg>
